<?xml version="1.0" encoding="UTF-8"?>
<svg xmlns="http://www.w3.org/2000/svg" xmlns:xlink="http://www.w3.org/1999/xlink" width="150px" height="150px" viewBox="0 0 150 150" version="1.1">
<g id="surface1">
<path style=" stroke:none;fill-rule:evenodd;fill:rgb(98.431373%,98.039216%,97.647059%);fill-opacity:1;" d="M 11.199219 54.097656 C 10.902344 54.398438 11.097656 95.238281 11.394531 95.398438 C 12.074219 95.761719 41.308594 95.511719 42.675781 95.132812 C 48.335938 93.550781 51.488281 89.382812 51.261719 83.777344 C 51.066406 78.898438 48.863281 75.769531 44.664062 74.40625 C 43.5625 74.046875 43.425781 73.875 44.0625 73.636719 C 48.007812 72.160156 49.988281 69.433594 50.316406 65.023438 C 50.691406 59.996094 47.289062 55.539062 42.128906 54.304688 C 40.863281 54 11.492188 53.808594 11.199219 54.097656 M 68.210938 54.5625 C 67.820312 55.496094 66.785156 58.320312 59.925781 77.175781 C 58.511719 81.066406 55.699219 88.753906 54.574219 91.800781 C 53.3125 95.214844 53.34375 95.105469 53.539062 95.300781 C 53.75 95.507812 65.691406 95.636719 66.484375 95.4375 C 67.011719 95.304688 67.109375 95.070312 68.320312 91.011719 L 68.710938 89.699219 L 75.886719 89.699219 C 81.449219 89.699219 83.09375 89.742188 83.207031 89.886719 C 83.289062 89.992188 83.636719 91.054688 83.980469 92.25 C 84.796875 95.0625 84.929688 95.347656 85.453125 95.460938 C 86.066406 95.59375 98.804688 95.496094 98.941406 95.359375 C 99.097656 95.199219 99.144531 95.324219 90.1875 70.875 C 89.394531 68.71875 88.417969 66.023438 87.140625 62.476562 C 86.8125 61.566406 85.988281 59.304688 85.304688 57.449219 L 84.066406 54.074219 L 76.253906 54.035156 L 68.445312 53.996094 L 68.210938 54.5625 M 104.191406 54.238281 C 103.914062 54.960938 104.101562 95.238281 104.382812 95.390625 C 104.835938 95.632812 139.964844 95.609375 140.296875 95.363281 C 140.535156 95.191406 140.550781 94.777344 140.515625 90.375 L 140.476562 85.574219 L 129.238281 85.535156 C 121.242188 85.507812 117.945312 85.449219 117.800781 85.332031 C 117.527344 85.101562 117.507812 79.652344 117.78125 79.378906 C 117.917969 79.242188 120.230469 79.199219 127.273438 79.199219 C 134.320312 79.199219 136.632812 79.15625 136.769531 79.019531 C 137.046875 78.746094 137.023438 70 136.75 69.769531 C 136.605469 69.652344 133.777344 69.589844 127.109375 69.5625 L 117.675781 69.523438 L 117.632812 66.902344 C 117.597656 64.605469 117.625 64.253906 117.839844 64.097656 C 118.027344 63.957031 120.730469 63.914062 128.980469 63.90625 C 139 63.894531 139.890625 63.875 140.0625 63.644531 C 140.304688 63.320312 140.332031 54.734375 140.09375 54.289062 C 139.875 53.878906 104.347656 53.828125 104.191406 54.238281 M 35.242188 63.574219 C 37.378906 64.871094 37.246094 68.675781 35.023438 69.746094 C 34.328125 70.082031 25.0625 70.273438 24.75 69.957031 C 24.648438 69.859375 24.609375 68.628906 24.632812 66.515625 L 24.675781 63.226562 L 25.574219 63.148438 C 26.070312 63.109375 28.296875 63.097656 30.523438 63.121094 L 34.574219 63.167969 L 35.242188 63.574219 M 76.199219 65.886719 C 76.199219 65.925781 76.585938 67.234375 78.144531 72.523438 C 79.832031 78.226562 80.269531 79.839844 80.1875 80.042969 C 80.074219 80.347656 71.878906 80.347656 71.761719 80.046875 C 71.664062 79.792969 72.222656 77.796875 74.546875 70.125 C 74.949219 68.804688 75.355469 67.421875 75.453125 67.050781 C 75.6875 66.160156 76.191406 65.378906 76.199219 65.886719 M 36.148438 79.132812 C 38.25 80.367188 38.164062 84.316406 36.011719 85.453125 L 35.347656 85.804688 L 24.675781 85.726562 L 24.632812 82.429688 C 24.613281 80.617188 24.628906 79.042969 24.671875 78.933594 C 24.816406 78.558594 35.484375 78.742188 36.148438 79.132812 "/>
<path style=" stroke:none;fill-rule:evenodd;fill:rgb(98.431373%,20%,20%);fill-opacity:1;" d="M 65.101562 0.164062 C 64.316406 0.28125 63.371094 0.429688 61.5 0.738281 C 59.042969 1.140625 57.320312 1.5 55.726562 1.949219 C 55.394531 2.042969 54.921875 2.171875 54.675781 2.242188 C 54.425781 2.308594 53.921875 2.464844 53.550781 2.589844 C 53.179688 2.710938 52.550781 2.898438 52.160156 3.003906 C 51.765625 3.105469 51.40625 3.25 51.363281 3.320312 C 51.320312 3.390625 51.160156 3.449219 51.011719 3.449219 C 50.863281 3.449219 50.410156 3.578125 50.007812 3.738281 C 49.605469 3.894531 48.492188 4.328125 47.539062 4.703125 C 41.070312 7.222656 35.410156 10.402344 29.476562 14.851562 C 28.238281 15.777344 27.191406 16.578125 27.148438 16.632812 C 27.109375 16.6875 26.839844 16.921875 26.550781 17.15625 C 24.605469 18.738281 20.382812 22.800781 19.042969 24.375 C 17.046875 26.71875 16.117188 27.828125 15.824219 28.214844 C 15.660156 28.433594 15.222656 29.003906 14.851562 29.492188 C 9.511719 36.5 4.773438 45.914062 2.609375 53.808594 C 2.480469 54.285156 2.308594 54.910156 2.230469 55.199219 C 2.148438 55.488281 2.019531 55.960938 1.9375 56.25 C 1.855469 56.539062 1.730469 57.078125 1.652344 57.449219 C 1.578125 57.820312 1.441406 58.429688 1.355469 58.800781 C 0.945312 60.527344 0.375 63.886719 0.160156 65.851562 C -0.0195312 67.480469 -0.0195312 82.335938 0.160156 83.925781 C 0.347656 85.597656 0.742188 88.164062 1.039062 89.625 C 1.121094 90.039062 1.257812 90.710938 1.335938 91.125 C 1.414062 91.539062 1.550781 92.144531 1.632812 92.476562 C 1.71875 92.804688 1.855469 93.363281 1.941406 93.710938 C 2.488281 95.933594 2.574219 96.230469 3.074219 97.800781 C 3.46875 99.027344 3.945312 100.394531 4.199219 101.023438 C 4.265625 101.191406 4.46875 101.730469 4.652344 102.226562 C 4.835938 102.71875 5.070312 103.328125 5.175781 103.574219 C 5.285156 103.824219 5.480469 104.292969 5.617188 104.625 C 6.195312 106.035156 6.429688 106.539062 7.460938 108.601562 C 8.75 111.183594 9.277344 112.160156 10.277344 113.824219 C 10.6875 114.511719 11.09375 115.183594 11.175781 115.320312 C 11.761719 116.300781 14.363281 120.003906 15.488281 121.453125 C 16.003906 122.117188 17.546875 123.996094 18.253906 124.816406 C 19.226562 125.941406 22.8125 129.605469 23.898438 130.574219 C 24.542969 131.152344 25.351562 131.882812 25.695312 132.199219 C 26.042969 132.515625 26.5625 132.953125 26.851562 133.175781 C 27.136719 133.394531 27.46875 133.664062 27.585938 133.773438 C 27.777344 133.957031 28.507812 134.519531 29.984375 135.628906 C 33.347656 138.148438 38.054688 141.050781 41.625 142.800781 C 43.925781 143.925781 47.136719 145.351562 47.378906 145.351562 C 47.441406 145.351562 47.773438 145.484375 48.113281 145.648438 C 48.457031 145.816406 48.835938 145.949219 48.957031 145.949219 C 49.082031 145.949219 49.222656 146.019531 49.273438 146.101562 C 49.328125 146.183594 49.527344 146.25 49.726562 146.25 C 49.921875 146.25 50.125 146.316406 50.175781 146.398438 C 50.226562 146.480469 50.417969 146.550781 50.605469 146.550781 C 50.789062 146.550781 51.003906 146.605469 51.082031 146.675781 C 51.160156 146.742188 51.527344 146.886719 51.898438 146.992188 C 52.269531 147.097656 52.710938 147.238281 52.875 147.300781 C 53.039062 147.363281 53.445312 147.484375 53.773438 147.570312 C 54.105469 147.65625 54.746094 147.839844 55.199219 147.980469 C 55.652344 148.121094 56.292969 148.292969 56.625 148.363281 C 56.957031 148.429688 57.597656 148.5625 58.050781 148.65625 C 58.503906 148.75 59.179688 148.890625 59.550781 148.96875 C 59.921875 149.046875 60.597656 149.183594 61.050781 149.269531 C 61.503906 149.355469 62.210938 149.488281 62.625 149.570312 C 64.351562 149.910156 66.382812 149.972656 75.148438 149.976562 C 83.929688 149.976562 85.808594 149.914062 87.523438 149.5625 C 87.9375 149.480469 88.628906 149.339844 89.0625 149.253906 C 91.199219 148.832031 92.4375 148.578125 93.375 148.363281 C 94.359375 148.140625 95.910156 147.734375 96.148438 147.640625 C 96.273438 147.589844 96.78125 147.433594 97.273438 147.289062 C 98.523438 146.925781 101.195312 145.984375 101.960938 145.636719 C 102.308594 145.480469 102.695312 145.351562 102.816406 145.351562 C 102.933594 145.351562 103.074219 145.28125 103.125 145.199219 C 103.175781 145.117188 103.316406 145.050781 103.433594 145.050781 C 103.550781 145.050781 104.171875 144.808594 104.8125 144.511719 C 105.449219 144.214844 106.242188 143.863281 106.566406 143.734375 C 108.15625 143.089844 111.898438 141.0625 114.601562 139.375 C 117.933594 137.292969 120.988281 135.089844 123.285156 133.109375 C 123.582031 132.855469 123.988281 132.519531 124.191406 132.359375 C 126.164062 130.820312 132.839844 123.957031 133.5625 122.722656 C 133.636719 122.59375 133.886719 122.28125 134.113281 122.03125 C 134.34375 121.78125 134.699219 121.339844 134.910156 121.050781 C 135.664062 120.007812 136.066406 119.464844 136.503906 118.875 C 137.207031 117.9375 139.480469 114.484375 140.207031 113.25 C 141.167969 111.613281 143.324219 107.347656 144.144531 105.449219 C 144.929688 103.640625 145 103.472656 145.347656 102.523438 C 145.53125 102.03125 145.734375 101.488281 145.800781 101.324219 C 145.867188 101.160156 146 100.789062 146.101562 100.5 C 146.199219 100.210938 146.339844 99.839844 146.40625 99.675781 C 146.578125 99.273438 147.003906 97.992188 147.167969 97.386719 C 147.238281 97.121094 147.371094 96.648438 147.460938 96.335938 C 147.546875 96.027344 147.679688 95.539062 147.75 95.25 C 147.820312 94.960938 147.957031 94.457031 148.050781 94.125 C 148.144531 93.792969 148.285156 93.238281 148.363281 92.886719 C 148.496094 92.257812 148.648438 91.582031 148.960938 90.1875 C 149.046875 89.796875 149.179688 89.085938 149.257812 88.613281 C 149.335938 88.136719 149.46875 87.328125 149.554688 86.8125 C 149.640625 86.296875 149.769531 85.269531 149.839844 84.523438 C 150.019531 82.695312 150.019531 67.179688 149.84375 65.398438 C 149.683594 63.742188 149.308594 61.402344 148.957031 59.8125 C 148.871094 59.421875 148.738281 58.8125 148.660156 58.460938 C 148.246094 56.605469 148.03125 55.773438 147.441406 53.738281 C 147.363281 53.46875 147.238281 53.03125 147.167969 52.761719 C 146.808594 51.457031 145.617188 48.125 144.664062 45.75 C 144.007812 44.125 140.828125 37.738281 140.480469 37.355469 C 140.351562 37.214844 140.25 37.050781 140.25 36.992188 C 140.25 36.933594 139.9375 36.398438 139.554688 35.804688 C 139.171875 35.210938 138.625 34.355469 138.335938 33.898438 C 138.046875 33.445312 137.71875 32.941406 137.605469 32.773438 C 135.332031 29.453125 134.902344 28.882812 132.742188 26.351562 C 132.449219 26.007812 132.054688 25.523438 131.867188 25.273438 C 130.804688 23.878906 124.304688 17.601562 122.9375 16.660156 C 122.765625 16.539062 122.589844 16.402344 122.550781 16.347656 C 122.257812 15.984375 118.5625 13.273438 116.40625 11.84375 C 113.433594 9.871094 105.738281 5.699219 105.078125 5.699219 C 105.023438 5.699219 104.613281 5.53125 104.160156 5.324219 C 103.710938 5.117188 103.289062 4.949219 103.222656 4.949219 C 103.160156 4.949219 102.828125 4.816406 102.484375 4.648438 C 102.144531 4.484375 101.765625 4.351562 101.640625 4.351562 C 101.519531 4.351562 101.382812 4.289062 101.335938 4.21875 C 101.292969 4.144531 101.101562 4.050781 100.914062 4.003906 C 100.730469 3.960938 99.96875 3.710938 99.226562 3.449219 C 97.914062 2.988281 96.46875 2.527344 95.398438 2.230469 C 95.113281 2.148438 94.636719 2.015625 94.351562 1.929688 C 94.0625 1.847656 93.554688 1.71875 93.226562 1.644531 C 92.894531 1.574219 92.320312 1.445312 91.949219 1.355469 C 91.027344 1.132812 88.738281 0.75 84.824219 0.160156 C 83.714844 -0.00390625 66.238281 -0.00390625 65.101562 0.164062 M 42.128906 54.304688 C 52.097656 56.691406 53.4375 70.128906 44.0625 73.636719 C 43.425781 73.875 43.5625 74.046875 44.664062 74.40625 C 48.863281 75.769531 51.066406 78.898438 51.261719 83.777344 C 51.488281 89.382812 48.335938 93.550781 42.675781 95.132812 C 41.308594 95.511719 12.074219 95.761719 11.394531 95.398438 C 11.097656 95.238281 10.902344 54.398438 11.199219 54.097656 C 11.492188 53.808594 40.863281 54 42.128906 54.304688 M 85.304688 57.449219 C 85.988281 59.304688 86.8125 61.566406 87.140625 62.476562 C 88.417969 66.023438 89.394531 68.71875 90.1875 70.875 C 99.144531 95.324219 99.097656 95.199219 98.941406 95.359375 C 98.804688 95.496094 86.066406 95.59375 85.453125 95.460938 C 84.929688 95.347656 84.796875 95.0625 83.980469 92.25 C 83.636719 91.054688 83.289062 89.992188 83.207031 89.886719 C 83.09375 89.742188 81.449219 89.699219 75.886719 89.699219 L 68.710938 89.699219 L 68.320312 91.011719 C 67.109375 95.070312 67.011719 95.304688 66.484375 95.4375 C 65.691406 95.636719 53.75 95.507812 53.539062 95.300781 C 53.34375 95.105469 53.3125 95.214844 54.574219 91.800781 C 55.699219 88.753906 58.511719 81.066406 59.925781 77.175781 C 66.785156 58.320312 67.820312 55.496094 68.210938 54.5625 L 68.445312 53.996094 L 76.253906 54.035156 L 84.066406 54.074219 L 85.304688 57.449219 M 140.09375 54.289062 C 140.332031 54.734375 140.304688 63.320312 140.0625 63.644531 C 139.890625 63.875 139 63.894531 128.980469 63.90625 C 120.730469 63.914062 118.027344 63.957031 117.839844 64.097656 C 117.625 64.253906 117.597656 64.605469 117.632812 66.902344 L 117.675781 69.523438 L 127.109375 69.5625 C 133.777344 69.589844 136.605469 69.652344 136.75 69.769531 C 137.023438 70 137.046875 78.746094 136.769531 79.019531 C 136.632812 79.15625 134.320312 79.199219 127.273438 79.199219 C 120.230469 79.199219 117.917969 79.242188 117.78125 79.378906 C 117.507812 79.652344 117.527344 85.101562 117.800781 85.332031 C 117.945312 85.449219 121.242188 85.507812 129.238281 85.535156 L 140.476562 85.574219 L 140.515625 90.375 C 140.550781 94.777344 140.535156 95.191406 140.296875 95.363281 C 139.964844 95.609375 104.835938 95.632812 104.382812 95.390625 C 104.101562 95.238281 103.914062 54.960938 104.191406 54.238281 C 104.347656 53.828125 139.875 53.878906 140.09375 54.289062 M 25.574219 63.148438 L 24.675781 63.226562 L 24.632812 66.515625 C 24.609375 68.628906 24.648438 69.859375 24.75 69.957031 C 25.0625 70.273438 34.328125 70.082031 35.023438 69.746094 C 37.246094 68.675781 37.378906 64.871094 35.242188 63.574219 L 34.574219 63.167969 L 30.523438 63.121094 C 28.296875 63.097656 26.070312 63.109375 25.574219 63.148438 M 75.769531 66.113281 C 75.695312 66.257812 75.550781 66.679688 75.453125 67.050781 C 75.355469 67.421875 74.949219 68.804688 74.546875 70.125 C 72.222656 77.796875 71.664062 79.792969 71.761719 80.046875 C 71.878906 80.347656 80.074219 80.347656 80.1875 80.042969 C 80.269531 79.839844 79.832031 78.226562 78.144531 72.523438 C 76.585938 67.234375 76.199219 65.925781 76.199219 65.886719 C 76.199219 65.738281 75.882812 65.902344 75.769531 66.113281 M 24.671875 78.933594 C 24.628906 79.042969 24.613281 80.617188 24.632812 82.429688 L 24.675781 85.726562 L 35.347656 85.804688 L 36.011719 85.453125 C 38.164062 84.316406 38.25 80.367188 36.148438 79.132812 C 35.484375 78.742188 24.816406 78.558594 24.671875 78.933594 "/>
</g>
</svg>
